<?xml version="1.0" encoding="UTF-8"?>
<svg id="_Слой_1" data-name="Слой 1" xmlns="http://www.w3.org/2000/svg" viewBox="0 0 709.15 241.7">
  <defs>
    <style>
      .cls-1 {
        font-family: MontserratRoman-SemiBold, Montserrat;
        font-size: 100px;
        font-variation-settings: 'wght' 600;
        font-weight: 600;
      }

      .cls-1, .cls-2 {
        fill: red;
      }
    </style>
  </defs>
  <path d="m121.75,14.95c19.02.2,35.64,7.1,49.41,20.69,11.74,11.58,23.38,23.26,34.98,34.97,27.22,27.47,28.1,70.42,1.64,98.66-12.41,13.24-25.27,26.09-38.5,38.51-27.93,26.2-70.81,25.42-98.34-1.48-11.91-11.64-23.67-23.44-35.33-35.33-27.53-28.07-27.68-71.59-.28-99.81,11.83-12.19,23.88-24.17,36.03-36.04,13.86-13.54,30.62-20.17,50.38-20.17Zm-26.24,167.13c12.62,13.64,35.99,14.43,50.08.94,12.75-12.21,25.17-24.79,37.47-37.46,7.2-7.41,10.44-16.74,9.55-26.97-1.36-15.65-9.46-26.97-24.35-32.32-14.87-5.35-28.18-1.8-39.39,9.31-10.89,10.79-21.68,21.68-32.54,32.5-6.28,6.26-13.6,6.85-18.93,1.61-5.28-5.2-4.79-12.79,1.32-18.94,10.1-10.16,20.26-20.28,30.39-30.41,7.93-7.92,11.18-8.48,20.05-4.02,5.85-5.83,11.47-11.43,17.07-17.02-14-13.3-35.69-14.08-49.75-.77-12.94,12.25-25.51,24.93-37.82,37.81-8.19,8.57-11.15,19.26-8.92,30.94,2.76,14.47,11.39,24.31,25.4,28.75,14.1,4.47,26.68.92,37.19-9.32,11.46-11.16,22.61-22.64,33.99-33.88,5.71-5.64,13.18-5.82,18.27-.71,5.04,5.07,4.76,12.53-.88,18.22-11.14,11.24-22.33,22.44-33.59,33.58-5.11,5.06-9.99,5.53-16.28,1.93-.67-.38-1.4-.67-1.57-.75-5.81,5.88-11.28,11.42-16.76,16.97Z"/>
  <text class="cls-1" transform="translate(266.76 150.39)"><tspan x="0" y="0">Answers</tspan></text>
  <path class="cls-2" d="m0,114.77c.4-3.32.77-6.65,1.19-9.96,2.17-17.09,7.89-32.93,16.98-47.54,13.42-21.55,31.84-37.38,55.09-47.5C85.78,4.32,98.91,1.23,112.56.3c20.93-1.42,40.96,2.14,59.83,11.24,30.26,14.6,51.17,37.8,62.57,69.46,3.73,10.35,5.86,21.04,6.48,32.02.03.59.25,1.16.37,1.75,0,4.03,0,8.06,0,12.09-.39,3.32-.75,6.64-1.18,9.95-2.23,17.29-7.93,33.39-17.31,48.05-18.36,28.69-44.26,46.84-77.53,54.2-13.4,2.96-26.99,3.35-40.64,1.53-21.65-2.88-41.14-10.94-58.31-24.38-22.89-17.91-37.57-41.13-43.91-69.49-1.3-5.8-1.72-11.8-2.55-17.7-.1-.72-.26-1.44-.39-2.16,0-4.03,0-8.06,0-12.09Zm57.37,84.12c36.53,31.07,98.79,32.94,138.19-10.37,37.78-41.55,31.33-100.04,2.67-132.1-46.91,47.45-93.84,94.92-140.86,142.47ZM184.01,42.39C147.59,12.14,86.99,10.08,47.69,51.58c-38.46,40.6-33.7,99.43-4.46,133.17,46.89-47.42,93.76-94.82,140.78-142.37Z"/>
</svg>